<svg width="79" height="25" viewBox="0 0 79 25" fill="none" xmlns="http://www.w3.org/2000/svg">
<path d="M19.144 21.312C19.656 22.6347 20.392 23.3173 21.352 23.36V24C20.4987 23.936 19.3573 23.904 17.928 23.904C16.0933 23.904 14.728 23.936 13.832 24V23.36C14.6427 23.3173 15.2187 23.2213 15.56 23.072C15.9227 22.9013 16.104 22.6027 16.104 22.176C16.104 21.8133 15.976 21.312 15.72 20.672L13.768 15.424L6.024 15.424L4.712 18.816C4.28533 19.968 4.072 20.8427 4.072 21.44C4.072 22.1013 4.296 22.5813 4.744 22.88C5.21333 23.1787 5.91733 23.3387 6.856 23.36V24C5.64 23.936 4.41333 23.904 3.176 23.904C2.216 23.904 1.416 23.936 0.776 24L0.776 23.36C1.84267 23.104 2.68533 22.176 3.304 20.576L10.824 1.184H11.336L19.144 21.312ZM13.512 14.784L9.928 5.216L6.28 14.784L13.512 14.784ZM38.4513 22.4C37.9606 23.1253 37.4699 23.648 36.9792 23.968C36.4886 24.288 35.8379 24.448 35.0273 24.448C34.1526 24.448 33.4272 24.192 32.8512 23.68C32.2966 23.168 31.8806 22.272 31.6032 20.992L30.8993 17.792C30.6433 16.6827 30.3979 15.8293 30.1632 15.232C29.9499 14.6347 29.6192 14.1547 29.1712 13.792C28.7232 13.4293 28.0939 13.248 27.2832 13.248H24.2432V20.608C24.2432 21.4187 24.3072 22.0053 24.4352 22.368C24.5632 22.7307 24.7979 22.976 25.1392 23.104C25.5019 23.232 26.0672 23.3173 26.8352 23.36V24C25.8539 23.936 24.4992 23.904 22.7712 23.904C20.9366 23.904 19.5712 23.936 18.6752 24V23.36C19.4432 23.3173 19.9979 23.232 20.3392 23.104C20.7019 22.976 20.9472 22.7307 21.0752 22.368C21.2032 22.0053 21.2672 21.4187 21.2672 20.608V4.736C21.2672 3.92533 21.2032 3.33867 21.0752 2.976C20.9472 2.61333 20.7019 2.368 20.3392 2.24C19.9979 2.112 19.4432 2.02667 18.6752 1.984V1.344C19.5712 1.408 20.8726 1.44 22.5792 1.44L26.0352 1.408C26.4406 1.38667 26.8992 1.376 27.4113 1.376C29.8859 1.376 31.7846 1.89867 33.1073 2.944C34.4513 3.968 35.1233 5.30133 35.1233 6.944C35.1233 7.776 34.9206 8.61867 34.5152 9.472C34.1313 10.304 33.4699 11.0613 32.5312 11.744C31.6139 12.4053 30.4086 12.8533 28.9152 13.088L29.2992 13.152C30.7072 13.3867 31.7313 13.8133 32.3713 14.432C33.0112 15.0507 33.4806 16.032 33.7792 17.376L34.5793 20.64C34.7926 21.6213 35.0166 22.304 35.2512 22.688C35.4859 23.072 35.8059 23.264 36.2113 23.264C36.5739 23.264 36.8726 23.168 37.1073 22.976C37.3633 22.784 37.6513 22.4747 37.9713 22.048L38.4513 22.4ZM26.6112 1.984C25.9499 1.984 25.4486 2.05867 25.1072 2.208C24.7872 2.35733 24.5632 2.624 24.4352 3.008C24.3072 3.392 24.2432 3.968 24.2432 4.736V12.608H26.3872C28.4993 12.608 29.9499 12.1387 30.7393 11.2C31.5286 10.2613 31.9233 8.96 31.9233 7.296C31.9233 5.54667 31.5073 4.224 30.6753 3.328C29.8432 2.432 28.4886 1.984 26.6112 1.984ZM53.6065 1.344C53.4572 2.85867 53.3825 4.224 53.3825 5.44C53.3825 6.50667 53.4145 7.38133 53.4785 8.064H52.7425C52.5718 6.42133 52.3585 5.20533 52.1025 4.416C51.8465 3.60533 51.3985 3.01867 50.7585 2.656C50.1185 2.272 49.1372 2.08 47.8145 2.08H46.0865L46.0865 20.288C46.0865 21.184 46.1718 21.8347 46.3425 22.24C46.5132 22.6453 46.8118 22.9227 47.2385 23.072C47.6652 23.2213 48.3585 23.3173 49.3185 23.36V24C48.2092 23.936 46.6412 23.904 44.6145 23.904C42.4812 23.904 40.9025 23.936 39.8785 24V23.36C40.8385 23.3173 41.5318 23.2213 41.9585 23.072C42.3852 22.9227 42.6838 22.6453 42.8545 22.24C43.0252 21.8347 43.1105 21.184 43.1105 20.288L43.1105 2.08H41.3825C40.0598 2.08 39.0785 2.272 38.4385 2.656C37.7985 3.01867 37.3505 3.60533 37.0945 4.416C36.8385 5.20533 36.6252 6.42133 36.4545 8.064H35.7185C35.7825 7.38133 35.8145 6.50667 35.8145 5.44C35.8145 4.224 35.7398 2.85867 35.5905 1.344C37.3612 1.408 40.3692 1.44 44.6145 1.44C48.8385 1.44 51.8358 1.408 53.6065 1.344ZM60.8415 1.984C60.0735 2.02667 59.5082 2.112 59.1455 2.24C58.8042 2.368 58.5695 2.61333 58.4415 2.976C58.3135 3.33867 58.2495 3.92533 58.2495 4.736L58.2495 20.608C58.2495 21.4187 58.3135 22.0053 58.4415 22.368C58.5695 22.7307 58.8042 22.976 59.1455 23.104C59.5082 23.232 60.0735 23.3173 60.8415 23.36V24C59.8602 23.936 58.5055 23.904 56.7775 23.904C54.9428 23.904 53.5775 23.936 52.6815 24V23.36C53.4495 23.3173 54.0042 23.232 54.3455 23.104C54.7082 22.976 54.9535 22.7307 55.0815 22.368C55.2095 22.0053 55.2735 21.4187 55.2735 20.608L55.2735 4.736C55.2735 3.92533 55.2095 3.33867 55.0815 2.976C54.9535 2.61333 54.7082 2.368 54.3455 2.24C54.0042 2.112 53.4495 2.02667 52.6815 1.984V1.344C53.5775 1.408 54.9428 1.44 56.7775 1.44C58.4842 1.44 59.8388 1.408 60.8415 1.344V1.984ZM70.6033 0.895998C71.8833 0.895998 72.9713 1.07733 73.8673 1.44C74.7633 1.80267 75.6379 2.31467 76.4913 2.976C76.7259 3.168 76.9286 3.264 77.0993 3.264C77.5259 3.264 77.8033 2.624 77.9313 1.344H78.6673C78.5819 2.73067 78.5393 5.184 78.5393 8.704L77.8033 8.704C77.5686 7.31733 77.3553 6.32533 77.1633 5.728C76.9713 5.10933 76.6513 4.52267 76.2033 3.968C75.5633 3.136 74.7419 2.51733 73.7393 2.112C72.7579 1.68533 71.6913 1.472 70.5393 1.472C69.1526 1.472 67.9366 1.93067 66.8913 2.848C65.8673 3.76533 65.0673 5.07733 64.4913 6.784C63.9153 8.46933 63.6273 10.4533 63.6273 12.736C63.6273 15.0613 63.9366 17.056 64.5553 18.72C65.1739 20.384 66.0273 21.6533 67.1153 22.528C68.2246 23.3813 69.4726 23.808 70.8593 23.808C71.9259 23.808 72.9606 23.6053 73.9633 23.2C74.9659 22.7947 75.7553 22.1867 76.3313 21.376C76.7579 20.7787 77.0673 20.1387 77.2593 19.456C77.4513 18.7733 77.6326 17.728 77.8033 16.32L78.5393 16.32C78.5393 19.9893 78.5819 22.5493 78.6673 24H77.9313C77.8673 23.3173 77.7713 22.8373 77.6433 22.56C77.5366 22.2613 77.3766 22.112 77.1633 22.112C76.9926 22.112 76.7686 22.1973 76.4913 22.368C75.5313 23.0507 74.6139 23.5733 73.7393 23.936C72.8646 24.2773 71.8086 24.448 70.5713 24.448C68.5446 24.448 66.7633 23.9893 65.2273 23.072C63.7126 22.1547 62.5286 20.832 61.6753 19.104C60.8433 17.3547 60.4273 15.2747 60.4273 12.864C60.4273 10.5173 60.8539 8.43733 61.7073 6.624C62.5819 4.81067 63.7873 3.40267 65.3233 2.4C66.8806 1.39733 68.6406 0.895998 70.6033 0.895998Z" fill="#A9A9A9"/>
</svg>
