<svg width="126" height="16" viewBox="0 0 126 16" fill="none" xmlns="http://www.w3.org/2000/svg">
<path d="M12.1 2.04C12.3 2.16 12.4 2.32667 12.4 2.54C12.4 2.66 12.3533 2.79333 12.26 2.94C12.14 3.08667 11.9867 3.16 11.8 3.16C11.6933 3.16 11.5867 3.12667 11.48 3.06C10.4133 2.35333 9.24667 2 7.98 2C6.9 2 5.92 2.25333 5.04 2.76C4.17333 3.26667 3.48667 3.98 2.98 4.9C2.48667 5.80667 2.24 6.84 2.24 8C2.24 9.18667 2.49333 10.24 3 11.16C3.50667 12.0667 4.19333 12.7733 5.06 13.28C5.94 13.7733 6.91333 14.02 7.98 14.02C9.24667 14.02 10.4067 13.6733 11.46 12.98C11.5667 12.9133 11.68 12.88 11.8 12.88C11.9867 12.88 12.14 12.96 12.26 13.12C12.3533 13.2267 12.4 13.3533 12.4 13.5C12.4 13.7133 12.3067 13.8733 12.12 13.98C11.6 14.3267 10.96 14.62 10.2 14.86C9.44 15.0867 8.7 15.2 7.98 15.2C6.71333 15.2 5.54 14.9 4.46 14.3C3.39333 13.6867 2.54 12.8333 1.9 11.74C1.27333 10.6467 0.96 9.4 0.96 8C0.96 6.65333 1.27333 5.43333 1.9 4.34C2.52667 3.23333 3.37333 2.37333 4.44 1.76C5.50667 1.13333 6.68667 0.819999 7.98 0.819999C8.72667 0.819999 9.45333 0.926666 10.16 1.14C10.88 1.35333 11.5267 1.65333 12.1 2.04ZM26.8264 8C26.8264 9.37333 26.5397 10.6067 25.9664 11.7C25.3931 12.7933 24.5997 13.6533 23.5864 14.28C22.5731 14.8933 21.4197 15.2 20.1264 15.2C18.8331 15.2 17.6797 14.8933 16.6664 14.28C15.6531 13.6533 14.8597 12.7933 14.2864 11.7C13.7131 10.6067 13.4264 9.37333 13.4264 8C13.4264 6.61333 13.7131 5.37333 14.2864 4.28C14.8597 3.18667 15.6531 2.33333 16.6664 1.72C17.6797 1.10667 18.8331 0.799999 20.1264 0.799999C21.4197 0.799999 22.5731 1.10667 23.5864 1.72C24.5997 2.33333 25.3931 3.18667 25.9664 4.28C26.5397 5.37333 26.8264 6.61333 26.8264 8ZM25.5464 8C25.5464 6.84 25.3131 5.80667 24.8464 4.9C24.3931 3.98 23.7531 3.26667 22.9264 2.76C22.1131 2.25333 21.1797 2 20.1264 2C19.0731 2 18.1331 2.25333 17.3064 2.76C16.4931 3.26667 15.8531 3.98 15.3864 4.9C14.9331 5.80667 14.7064 6.84 14.7064 8C14.7064 9.16 14.9331 10.2 15.3864 11.12C15.8531 12.0267 16.4931 12.7333 17.3064 13.24C18.1331 13.7467 19.0731 14 20.1264 14C21.1797 14 22.1131 13.7467 22.9264 13.24C23.7531 12.7333 24.3931 12.0267 24.8464 11.12C25.3131 10.2 25.5464 9.16 25.5464 8ZM36.7989 13.82C36.9722 13.82 37.1122 13.8733 37.2189 13.98C37.3389 14.0867 37.3989 14.2267 37.3989 14.4C37.3989 14.5733 37.3389 14.72 37.2189 14.84C37.1122 14.9467 36.9722 15 36.7989 15L29.6589 15C29.4856 15 29.3389 14.9467 29.2189 14.84C29.1122 14.72 29.0589 14.5733 29.0589 14.4L29.0589 1.6C29.0589 1.42667 29.1189 1.28667 29.2389 1.18C29.3589 1.06 29.5122 0.999999 29.6989 0.999999C29.8722 0.999999 30.0189 1.06 30.1389 1.18C30.2589 1.28667 30.3189 1.42667 30.3189 1.6L30.3189 13.82L36.7989 13.82ZM46.8434 13.82C47.0168 13.82 47.1568 13.8733 47.2634 13.98C47.3834 14.0867 47.4434 14.2267 47.4434 14.4C47.4434 14.5733 47.3834 14.72 47.2634 14.84C47.1568 14.9467 47.0168 15 46.8434 15H39.7034C39.5301 15 39.3834 14.9467 39.2634 14.84C39.1568 14.72 39.1034 14.5733 39.1034 14.4V1.6C39.1034 1.42667 39.1634 1.28667 39.2834 1.18C39.4034 1.06 39.5568 0.999999 39.7434 0.999999C39.9168 0.999999 40.0634 1.06 40.1834 1.18C40.3034 1.28667 40.3634 1.42667 40.3634 1.6V13.82H46.8434ZM57.088 13.82C57.2613 13.82 57.4013 13.88 57.508 14C57.628 14.12 57.688 14.26 57.688 14.42C57.688 14.5933 57.628 14.7333 57.508 14.84C57.4013 14.9467 57.2613 15 57.088 15L49.748 15C49.5746 15 49.428 14.9467 49.308 14.84C49.2013 14.72 49.148 14.5733 49.148 14.4V1.6C49.148 1.42667 49.2013 1.28667 49.308 1.18C49.428 1.06 49.5746 0.999999 49.748 0.999999L57.088 0.999999C57.2613 0.999999 57.4013 1.06 57.508 1.18C57.628 1.28667 57.688 1.42667 57.688 1.6C57.688 1.77333 57.628 1.91333 57.508 2.02C57.4013 2.12667 57.2613 2.18 57.088 2.18H50.408V7.2H56.188C56.3613 7.2 56.5013 7.26 56.608 7.38C56.728 7.48667 56.788 7.62667 56.788 7.8C56.788 7.97333 56.728 8.11333 56.608 8.22C56.5013 8.32667 56.3613 8.38 56.188 8.38H50.408V13.82L57.088 13.82ZM70.1352 2.04C70.3352 2.16 70.4352 2.32667 70.4352 2.54C70.4352 2.66 70.3885 2.79333 70.2952 2.94C70.1752 3.08667 70.0218 3.16 69.8352 3.16C69.7285 3.16 69.6218 3.12667 69.5152 3.06C68.4485 2.35333 67.2818 2 66.0152 2C64.9352 2 63.9552 2.25333 63.0752 2.76C62.2085 3.26667 61.5218 3.98 61.0152 4.9C60.5218 5.80667 60.2752 6.84 60.2752 8C60.2752 9.18667 60.5285 10.24 61.0352 11.16C61.5418 12.0667 62.2285 12.7733 63.0952 13.28C63.9752 13.7733 64.9485 14.02 66.0152 14.02C67.2818 14.02 68.4418 13.6733 69.4952 12.98C69.6018 12.9133 69.7152 12.88 69.8352 12.88C70.0218 12.88 70.1752 12.96 70.2952 13.12C70.3885 13.2267 70.4352 13.3533 70.4352 13.5C70.4352 13.7133 70.3418 13.8733 70.1552 13.98C69.6352 14.3267 68.9952 14.62 68.2352 14.86C67.4752 15.0867 66.7352 15.2 66.0152 15.2C64.7485 15.2 63.5752 14.9 62.4952 14.3C61.4285 13.6867 60.5752 12.8333 59.9352 11.74C59.3085 10.6467 58.9952 9.4 58.9952 8C58.9952 6.65333 59.3085 5.43333 59.9352 4.34C60.5618 3.23333 61.4085 2.37333 62.4752 1.76C63.5418 1.13333 64.7218 0.819999 66.0152 0.819999C66.7618 0.819999 67.4885 0.926666 68.1952 1.14C68.9152 1.35333 69.5618 1.65333 70.1352 2.04ZM81.3016 0.999999C81.4749 0.999999 81.6149 1.05333 81.7216 1.16C81.8416 1.26667 81.9016 1.40667 81.9016 1.58C81.9016 1.75333 81.8416 1.89333 81.7216 2C81.6149 2.09333 81.4749 2.14 81.3016 2.14H77.1616V14.4C77.1616 14.5733 77.1016 14.72 76.9816 14.84C76.8616 14.9467 76.7149 15 76.5416 15C76.3549 15 76.2016 14.9467 76.0816 14.84C75.9749 14.72 75.9216 14.5733 75.9216 14.4V2.14L71.7816 2.14C71.6082 2.14 71.4616 2.08667 71.3416 1.98C71.2349 1.87333 71.1816 1.73333 71.1816 1.56C71.1816 1.4 71.2349 1.26667 71.3416 1.16C71.4616 1.05333 71.6082 0.999999 71.7816 0.999999L81.3016 0.999999ZM85.1119 14.38C85.0985 14.5533 85.0319 14.7 84.9119 14.82C84.7919 14.94 84.6452 15 84.4719 15C84.2852 15 84.1319 14.9467 84.0119 14.84C83.9052 14.72 83.8519 14.5667 83.8519 14.38V1.62C83.8519 1.43333 83.9119 1.28667 84.0319 1.18C84.1519 1.06 84.3052 0.999999 84.4919 0.999999C84.6652 0.999999 84.8119 1.06 84.9319 1.18C85.0519 1.3 85.1119 1.44667 85.1119 1.62V14.38ZM100.732 8C100.732 9.37333 100.445 10.6067 99.8719 11.7C99.2985 12.7933 98.5052 13.6533 97.4919 14.28C96.4785 14.8933 95.3252 15.2 94.0319 15.2C92.7385 15.2 91.5852 14.8933 90.5719 14.28C89.5585 13.6533 88.7652 12.7933 88.1919 11.7C87.6185 10.6067 87.3319 9.37333 87.3319 8C87.3319 6.61333 87.6185 5.37333 88.1919 4.28C88.7652 3.18667 89.5585 2.33333 90.5719 1.72C91.5852 1.10667 92.7385 0.799999 94.0319 0.799999C95.3252 0.799999 96.4785 1.10667 97.4919 1.72C98.5052 2.33333 99.2985 3.18667 99.8719 4.28C100.445 5.37333 100.732 6.61333 100.732 8ZM99.4519 8C99.4519 6.84 99.2185 5.80667 98.7519 4.9C98.2985 3.98 97.6585 3.26667 96.8319 2.76C96.0185 2.25333 95.0852 2 94.0319 2C92.9785 2 92.0385 2.25333 91.2119 2.76C90.3985 3.26667 89.7585 3.98 89.2919 4.9C88.8385 5.80667 88.6119 6.84 88.6119 8C88.6119 9.16 88.8385 10.2 89.2919 11.12C89.7585 12.0267 90.3985 12.7333 91.2119 13.24C92.0385 13.7467 92.9785 14 94.0319 14C95.0852 14 96.0185 13.7467 96.8319 13.24C97.6585 12.7333 98.2985 12.0267 98.7519 11.12C99.2185 10.2 99.4519 9.16 99.4519 8ZM113.204 0.999999C113.378 0.999999 113.511 1.05333 113.604 1.16C113.711 1.26667 113.764 1.4 113.764 1.56V14.36C113.764 14.56 113.704 14.72 113.584 14.84C113.464 14.9467 113.318 15 113.144 15C113.051 15 112.958 14.98 112.864 14.94C112.784 14.9 112.718 14.8533 112.664 14.8L104.084 3.24V14.46C104.084 14.6067 104.024 14.7333 103.904 14.84C103.798 14.9467 103.671 15 103.524 15C103.364 15 103.231 14.9467 103.124 14.84C103.018 14.7333 102.964 14.6067 102.964 14.46V1.6C102.964 1.41333 103.018 1.26667 103.124 1.16C103.244 1.05333 103.384 0.999999 103.544 0.999999C103.758 0.999999 103.918 1.07333 104.024 1.22L112.644 12.84V1.56C112.644 1.4 112.698 1.26667 112.804 1.16C112.911 1.05333 113.044 0.999999 113.204 0.999999ZM120.695 15.2C119.735 15.2 118.882 15.04 118.135 14.72C117.402 14.4 116.688 13.9 115.995 13.22C115.835 13.0867 115.755 12.9267 115.755 12.74C115.755 12.58 115.815 12.4333 115.935 12.3C116.068 12.1667 116.215 12.1 116.375 12.1C116.535 12.1 116.682 12.1667 116.815 12.3C117.855 13.4467 119.155 14.02 120.715 14.02C121.675 14.02 122.468 13.7933 123.095 13.34C123.735 12.8867 124.055 12.2933 124.055 11.56C124.055 10.9867 123.895 10.5133 123.575 10.14C123.268 9.75333 122.862 9.44 122.355 9.2C121.848 8.96 121.202 8.71333 120.415 8.46C119.562 8.20667 118.842 7.92667 118.255 7.62C117.682 7.31333 117.215 6.90667 116.855 6.4C116.495 5.88 116.315 5.22667 116.315 4.44C116.315 3.73333 116.502 3.10667 116.875 2.56C117.262 2.01333 117.795 1.58667 118.475 1.28C119.168 0.959999 119.962 0.799999 120.855 0.799999C121.668 0.799999 122.428 0.939999 123.135 1.22C123.855 1.48667 124.428 1.87333 124.855 2.38C125.055 2.60667 125.155 2.8 125.155 2.96C125.155 3.10667 125.088 3.24667 124.955 3.38C124.822 3.5 124.675 3.56 124.515 3.56C124.382 3.56 124.268 3.51333 124.175 3.42C123.815 2.99333 123.335 2.64667 122.735 2.38C122.135 2.11333 121.508 1.98 120.855 1.98C119.882 1.98 119.088 2.2 118.475 2.64C117.862 3.06667 117.555 3.65333 117.555 4.4C117.555 5.17333 117.848 5.76667 118.435 6.18C119.022 6.59333 119.862 6.97333 120.955 7.32C121.902 7.6 122.675 7.88667 123.275 8.18C123.875 8.47333 124.362 8.89333 124.735 9.44C125.122 9.97333 125.315 10.68 125.315 11.56C125.315 12.24 125.115 12.86 124.715 13.42C124.328 13.9667 123.782 14.4 123.075 14.72C122.382 15.04 121.588 15.2 120.695 15.2Z" fill="#A9A9A9"/>
</svg>
