<svg width="79" height="16" viewBox="0 0 79 16" fill="none" xmlns="http://www.w3.org/2000/svg">
<path d="M8.82 13.82C8.99333 13.82 9.13333 13.88 9.24 14C9.36 14.12 9.42 14.26 9.42 14.42C9.42 14.5933 9.36 14.7333 9.24 14.84C9.13333 14.9467 8.99333 15 8.82 15H1.48C1.30667 15 1.16 14.9467 1.04 14.84C0.933333 14.72 0.88 14.5733 0.88 14.4L0.88 1.6C0.88 1.42667 0.933333 1.28667 1.04 1.18C1.16 1.06 1.30667 0.999999 1.48 0.999999L8.82 0.999999C8.99333 0.999999 9.13333 1.06 9.24 1.18C9.36 1.28667 9.42 1.42667 9.42 1.6C9.42 1.77333 9.36 1.91333 9.24 2.02C9.13333 2.12667 8.99333 2.18 8.82 2.18L2.14 2.18L2.14 7.2L7.92 7.2C8.09333 7.2 8.23333 7.26 8.34 7.38C8.46 7.48667 8.52 7.62667 8.52 7.8C8.52 7.97333 8.46 8.11333 8.34 8.22C8.23333 8.32667 8.09333 8.38 7.92 8.38L2.14 8.38L2.14 13.82H8.82ZM21.0672 14.1C21.1605 14.2333 21.2072 14.3533 21.2072 14.46C21.2072 14.6467 21.1405 14.8 21.0072 14.92C20.8872 15.0267 20.7472 15.08 20.5872 15.08C20.3872 15.08 20.2272 14.9933 20.1072 14.82L15.7872 8.96L11.4872 14.8C11.3672 14.9867 11.2072 15.08 11.0072 15.08C10.8472 15.08 10.7139 15.0267 10.6072 14.92C10.5139 14.8 10.4672 14.6733 10.4672 14.54C10.4672 14.4067 10.5139 14.2733 10.6072 14.14L15.1072 8.02L10.5872 1.9C10.4939 1.79333 10.4472 1.67333 10.4472 1.54C10.4472 1.38 10.5072 1.24 10.6272 1.12C10.7605 1 10.9072 0.94 11.0672 0.94C11.2672 0.94 11.4339 1.02 11.5672 1.18L15.8672 7.04L20.1472 1.2C20.2939 1.02667 20.4539 0.94 20.6272 0.94C20.7872 0.94 20.9205 0.993333 21.0272 1.1C21.1472 1.19333 21.2072 1.31333 21.2072 1.46C21.2072 1.56667 21.1605 1.69333 21.0672 1.84L16.5672 7.98L21.0672 14.1ZM33.1961 0.999999C33.3828 0.999999 33.5294 1.06 33.6361 1.18C33.7561 1.28667 33.8161 1.43333 33.8161 1.62V14.38C33.8028 14.5667 33.7361 14.72 33.6161 14.84C33.4961 14.9467 33.3494 15 33.1761 15C33.0028 15 32.8561 14.94 32.7361 14.82C32.6161 14.7 32.5561 14.5533 32.5561 14.38V8.42L24.4361 8.42V14.38C24.4228 14.5533 24.3561 14.7 24.2361 14.82C24.1161 14.94 23.9694 15 23.7961 15C23.6094 15 23.4561 14.9467 23.3361 14.84C23.2294 14.72 23.1761 14.5667 23.1761 14.38L23.1761 1.62C23.1761 1.43333 23.2361 1.28667 23.3561 1.18C23.4761 1.06 23.6294 0.999999 23.8161 0.999999C23.9894 0.999999 24.1361 1.06 24.2561 1.18C24.3761 1.3 24.4361 1.44667 24.4361 1.62L24.4361 7.26L32.5561 7.26V1.62C32.5561 1.44667 32.6161 1.3 32.7361 1.18C32.8694 1.06 33.0228 0.999999 33.1961 0.999999ZM38.2306 14.38C38.2173 14.5533 38.1506 14.7 38.0306 14.82C37.9106 14.94 37.764 15 37.5906 15C37.404 15 37.2506 14.9467 37.1306 14.84C37.024 14.72 36.9706 14.5667 36.9706 14.38V1.62C36.9706 1.43333 37.0306 1.28667 37.1506 1.18C37.2706 1.06 37.424 0.999999 37.6106 0.999999C37.784 0.999999 37.9306 1.06 38.0506 1.18C38.1706 1.3 38.2306 1.44667 38.2306 1.62V14.38ZM48.8506 7.56C49.6506 7.76 50.304 8.16 50.8106 8.76C51.3173 9.36 51.5706 10.14 51.5706 11.1C51.5706 12.4067 51.164 13.3867 50.3506 14.04C49.5506 14.68 48.5506 15 47.3506 15H41.9706C41.7973 15 41.6506 14.9467 41.5306 14.84C41.424 14.72 41.3706 14.5733 41.3706 14.4V1.6C41.3706 1.42667 41.424 1.28667 41.5306 1.18C41.6506 1.06 41.7973 0.999999 41.9706 0.999999L47.2706 0.999999C48.3906 0.999999 49.264 1.30667 49.8906 1.92C50.5306 2.53333 50.8506 3.37333 50.8506 4.44C50.8506 5.14667 50.6773 5.78 50.3306 6.34C49.984 6.9 49.4906 7.30667 48.8506 7.56ZM49.5706 4.54C49.5706 3.80667 49.3506 3.23333 48.9106 2.82C48.484 2.39333 47.884 2.18 47.1106 2.18H42.6506V7.18H47.1106C47.8306 7.16667 48.4173 6.93333 48.8706 6.48C49.3373 6.02667 49.5706 5.38 49.5706 4.54ZM47.2906 13.82C48.184 13.82 48.904 13.5933 49.4506 13.14C50.0106 12.6867 50.2906 12.0067 50.2906 11.1C50.2906 10.1667 50.004 9.48 49.4306 9.04C48.8706 8.6 48.144 8.38 47.2506 8.38H42.6506V13.82H47.2906ZM55.058 14.38C55.0446 14.5533 54.978 14.7 54.858 14.82C54.738 14.94 54.5913 15 54.418 15C54.2313 15 54.078 14.9467 53.958 14.84C53.8513 14.72 53.798 14.5667 53.798 14.38V1.62C53.798 1.43333 53.858 1.28667 53.978 1.18C54.098 1.06 54.2513 0.999999 54.438 0.999999C54.6113 0.999999 54.758 1.06 54.878 1.18C54.998 1.3 55.058 1.44667 55.058 1.62V14.38ZM67.118 0.999999C67.2913 0.999999 67.4313 1.05333 67.538 1.16C67.658 1.26667 67.718 1.40667 67.718 1.58C67.718 1.75333 67.658 1.89333 67.538 2C67.4313 2.09333 67.2913 2.14 67.118 2.14H62.978V14.4C62.978 14.5733 62.918 14.72 62.798 14.84C62.678 14.9467 62.5313 15 62.358 15C62.1713 15 62.018 14.9467 61.898 14.84C61.7913 14.72 61.738 14.5733 61.738 14.4V2.14L57.598 2.14C57.4246 2.14 57.278 2.08667 57.158 1.98C57.0513 1.87333 56.998 1.73333 56.998 1.56C56.998 1.4 57.0513 1.26667 57.158 1.16C57.278 1.05333 57.4246 0.999999 57.598 0.999999L67.118 0.999999ZM73.4483 15.2C72.4883 15.2 71.635 15.04 70.8883 14.72C70.155 14.4 69.4416 13.9 68.7483 13.22C68.5883 13.0867 68.5083 12.9267 68.5083 12.74C68.5083 12.58 68.5683 12.4333 68.6883 12.3C68.8216 12.1667 68.9683 12.1 69.1283 12.1C69.2883 12.1 69.435 12.1667 69.5683 12.3C70.6083 13.4467 71.9083 14.02 73.4683 14.02C74.4283 14.02 75.2216 13.7933 75.8483 13.34C76.4883 12.8867 76.8083 12.2933 76.8083 11.56C76.8083 10.9867 76.6483 10.5133 76.3283 10.14C76.0216 9.75333 75.615 9.44 75.1083 9.2C74.6016 8.96 73.955 8.71333 73.1683 8.46C72.315 8.20667 71.595 7.92667 71.0083 7.62C70.435 7.31333 69.9683 6.90667 69.6083 6.4C69.2483 5.88 69.0683 5.22667 69.0683 4.44C69.0683 3.73333 69.255 3.10667 69.6283 2.56C70.015 2.01333 70.5483 1.58667 71.2283 1.28C71.9216 0.959999 72.715 0.799999 73.6083 0.799999C74.4216 0.799999 75.1816 0.939999 75.8883 1.22C76.6083 1.48667 77.1816 1.87333 77.6083 2.38C77.8083 2.60667 77.9083 2.8 77.9083 2.96C77.9083 3.10667 77.8416 3.24667 77.7083 3.38C77.575 3.5 77.4283 3.56 77.2683 3.56C77.135 3.56 77.0216 3.51333 76.9283 3.42C76.5683 2.99333 76.0883 2.64667 75.4883 2.38C74.8883 2.11333 74.2616 1.98 73.6083 1.98C72.635 1.98 71.8416 2.2 71.2283 2.64C70.615 3.06667 70.3083 3.65333 70.3083 4.4C70.3083 5.17333 70.6016 5.76667 71.1883 6.18C71.775 6.59333 72.615 6.97333 73.7083 7.32C74.655 7.6 75.4283 7.88667 76.0283 8.18C76.6283 8.47333 77.115 8.89333 77.4883 9.44C77.875 9.97333 78.0683 10.68 78.0683 11.56C78.0683 12.24 77.8683 12.86 77.4683 13.42C77.0816 13.9667 76.535 14.4 75.8283 14.72C75.135 15.04 74.3416 15.2 73.4483 15.2Z" fill="#A9A9A9"/>
</svg>
