<svg width="88" height="16" viewBox="0 0 88 16" fill="none" xmlns="http://www.w3.org/2000/svg">
<path d="M12.1 2.04C12.3 2.16 12.4 2.32667 12.4 2.54C12.4 2.66 12.3533 2.79333 12.26 2.94C12.14 3.08667 11.9867 3.16 11.8 3.16C11.6933 3.16 11.5867 3.12667 11.48 3.06C10.4133 2.35333 9.24667 2 7.98 2C6.9 2 5.92 2.25333 5.04 2.76C4.17333 3.26667 3.48667 3.98 2.98 4.9C2.48667 5.80667 2.24 6.84 2.24 8C2.24 9.18667 2.49333 10.24 3 11.16C3.50667 12.0667 4.19333 12.7733 5.06 13.28C5.94 13.7733 6.91333 14.02 7.98 14.02C9.24667 14.02 10.4067 13.6733 11.46 12.98C11.5667 12.9133 11.68 12.88 11.8 12.88C11.9867 12.88 12.14 12.96 12.26 13.12C12.3533 13.2267 12.4 13.3533 12.4 13.5C12.4 13.7133 12.3067 13.8733 12.12 13.98C11.6 14.3267 10.96 14.62 10.2 14.86C9.44 15.0867 8.7 15.2 7.98 15.2C6.71333 15.2 5.54 14.9 4.46 14.3C3.39333 13.6867 2.54 12.8333 1.9 11.74C1.27333 10.6467 0.96 9.4 0.96 8C0.96 6.65333 1.27333 5.43333 1.9 4.34C2.52667 3.23333 3.37333 2.37333 4.44 1.76C5.50667 1.13333 6.68667 0.819999 7.98 0.819999C8.72667 0.819999 9.45333 0.926666 10.16 1.14C10.88 1.35333 11.5267 1.65333 12.1 2.04ZM26.8264 8C26.8264 9.37333 26.5397 10.6067 25.9664 11.7C25.3931 12.7933 24.5997 13.6533 23.5864 14.28C22.5731 14.8933 21.4197 15.2 20.1264 15.2C18.8331 15.2 17.6797 14.8933 16.6664 14.28C15.6531 13.6533 14.8597 12.7933 14.2864 11.7C13.7131 10.6067 13.4264 9.37333 13.4264 8C13.4264 6.61333 13.7131 5.37333 14.2864 4.28C14.8597 3.18667 15.6531 2.33333 16.6664 1.72C17.6797 1.10667 18.8331 0.799999 20.1264 0.799999C21.4197 0.799999 22.5731 1.10667 23.5864 1.72C24.5997 2.33333 25.3931 3.18667 25.9664 4.28C26.5397 5.37333 26.8264 6.61333 26.8264 8ZM25.5464 8C25.5464 6.84 25.3131 5.80667 24.8464 4.9C24.3931 3.98 23.7531 3.26667 22.9264 2.76C22.1131 2.25333 21.1797 2 20.1264 2C19.0731 2 18.1331 2.25333 17.3064 2.76C16.4931 3.26667 15.8531 3.98 15.3864 4.9C14.9331 5.80667 14.7064 6.84 14.7064 8C14.7064 9.16 14.9331 10.2 15.3864 11.12C15.8531 12.0267 16.4931 12.7333 17.3064 13.24C18.1331 13.7467 19.0731 14 20.1264 14C21.1797 14 22.1131 13.7467 22.9264 13.24C23.7531 12.7333 24.3931 12.0267 24.8464 11.12C25.3131 10.2 25.5464 9.16 25.5464 8ZM39.2989 0.999999C39.4722 0.999999 39.6056 1.05333 39.6989 1.16C39.8056 1.26667 39.8589 1.4 39.8589 1.56V14.36C39.8589 14.56 39.7989 14.72 39.6789 14.84C39.5589 14.9467 39.4122 15 39.2389 15C39.1456 15 39.0522 14.98 38.9589 14.94C38.8789 14.9 38.8122 14.8533 38.7589 14.8L30.1789 3.24L30.1789 14.46C30.1789 14.6067 30.1189 14.7333 29.9989 14.84C29.8922 14.9467 29.7656 15 29.6189 15C29.4589 15 29.3256 14.9467 29.2189 14.84C29.1122 14.7333 29.0589 14.6067 29.0589 14.46L29.0589 1.6C29.0589 1.41333 29.1122 1.26667 29.2189 1.16C29.3389 1.05333 29.4789 0.999999 29.6389 0.999999C29.8522 0.999999 30.0122 1.07333 30.1189 1.22L38.7389 12.84V1.56C38.7389 1.4 38.7922 1.26667 38.8989 1.16C39.0056 1.05333 39.1389 0.999999 39.2989 0.999999ZM51.9297 0.999999C52.103 0.999999 52.243 1.05333 52.3497 1.16C52.4697 1.26667 52.5297 1.40667 52.5297 1.58C52.5297 1.75333 52.4697 1.89333 52.3497 2C52.243 2.09333 52.103 2.14 51.9297 2.14L47.7897 2.14V14.4C47.7897 14.5733 47.7297 14.72 47.6097 14.84C47.4897 14.9467 47.343 15 47.1697 15C46.983 15 46.8297 14.9467 46.7097 14.84C46.603 14.72 46.5497 14.5733 46.5497 14.4V2.14H42.4097C42.2364 2.14 42.0897 2.08667 41.9697 1.98C41.863 1.87333 41.8097 1.73333 41.8097 1.56C41.8097 1.4 41.863 1.26667 41.9697 1.16C42.0897 1.05333 42.2364 0.999999 42.4097 0.999999L51.9297 0.999999ZM63.9239 14.2C63.9506 14.3067 63.9639 14.3867 63.9639 14.44C63.9639 14.6133 63.9039 14.7533 63.7839 14.86C63.6639 14.9667 63.5239 15.02 63.3639 15.02C63.2306 15.02 63.1106 14.9867 63.0039 14.92C62.9106 14.84 62.8372 14.74 62.7839 14.62L61.2839 10.96L54.7839 10.96L53.3039 14.62C53.1972 14.8867 53.0172 15.02 52.7639 15.02C52.5772 15.02 52.4372 14.9733 52.3439 14.88C52.2506 14.7867 52.1972 14.66 52.1839 14.5V14.44C52.1839 14.36 52.1906 14.3 52.2039 14.26L57.4839 1.34C57.5906 1.07333 57.7906 0.94 58.0839 0.94C58.2172 0.94 58.3306 0.98 58.4239 1.06C58.5306 1.12667 58.6106 1.22 58.6639 1.34L63.9239 14.2ZM60.8039 9.78L58.0039 2.94L55.2439 9.78L60.8039 9.78ZM75.9555 2.04C76.1555 2.16 76.2555 2.32667 76.2555 2.54C76.2555 2.66 76.2088 2.79333 76.1155 2.94C75.9955 3.08667 75.8421 3.16 75.6555 3.16C75.5488 3.16 75.4421 3.12667 75.3355 3.06C74.2688 2.35333 73.1021 2 71.8355 2C70.7555 2 69.7755 2.25333 68.8955 2.76C68.0288 3.26667 67.3421 3.98 66.8355 4.9C66.3421 5.80667 66.0955 6.84 66.0955 8C66.0955 9.18667 66.3488 10.24 66.8555 11.16C67.3621 12.0667 68.0488 12.7733 68.9155 13.28C69.7955 13.7733 70.7688 14.02 71.8355 14.02C73.1021 14.02 74.2621 13.6733 75.3155 12.98C75.4221 12.9133 75.5355 12.88 75.6555 12.88C75.8421 12.88 75.9955 12.96 76.1155 13.12C76.2088 13.2267 76.2555 13.3533 76.2555 13.5C76.2555 13.7133 76.1621 13.8733 75.9755 13.98C75.4555 14.3267 74.8155 14.62 74.0555 14.86C73.2955 15.0867 72.5555 15.2 71.8355 15.2C70.5688 15.2 69.3955 14.9 68.3155 14.3C67.2488 13.6867 66.3955 12.8333 65.7555 11.74C65.1288 10.6467 64.8155 9.4 64.8155 8C64.8155 6.65333 65.1288 5.43333 65.7555 4.34C66.3821 3.23333 67.2288 2.37333 68.2955 1.76C69.3621 1.13333 70.5421 0.819999 71.8355 0.819999C72.5821 0.819999 73.3088 0.926666 74.0155 1.14C74.7355 1.35333 75.3821 1.65333 75.9555 2.04ZM87.1219 0.999999C87.2952 0.999999 87.4352 1.05333 87.5419 1.16C87.6619 1.26667 87.7219 1.40667 87.7219 1.58C87.7219 1.75333 87.6619 1.89333 87.5419 2C87.4352 2.09333 87.2952 2.14 87.1219 2.14H82.9819V14.4C82.9819 14.5733 82.9219 14.72 82.8019 14.84C82.6819 14.9467 82.5352 15 82.3619 15C82.1752 15 82.0219 14.9467 81.9019 14.84C81.7952 14.72 81.7419 14.5733 81.7419 14.4V2.14H77.6019C77.4285 2.14 77.2819 2.08667 77.1619 1.98C77.0552 1.87333 77.0019 1.73333 77.0019 1.56C77.0019 1.4 77.0552 1.26667 77.1619 1.16C77.2819 1.05333 77.4285 0.999999 77.6019 0.999999L87.1219 0.999999Z" fill="#A9A9A9"/>
</svg>
