<svg width="65" height="16" viewBox="0 0 65 16" fill="none" xmlns="http://www.w3.org/2000/svg">
<path d="M12.32 14.2C12.3467 14.3067 12.36 14.3867 12.36 14.44C12.36 14.6133 12.3 14.7533 12.18 14.86C12.06 14.9667 11.92 15.02 11.76 15.02C11.6267 15.02 11.5067 14.9867 11.4 14.92C11.3067 14.84 11.2333 14.74 11.18 14.62L9.68 10.96H3.18L1.7 14.62C1.59333 14.8867 1.41333 15.02 1.16 15.02C0.973333 15.02 0.833333 14.9733 0.74 14.88C0.646667 14.7867 0.593333 14.66 0.58 14.5V14.44C0.58 14.36 0.586667 14.3 0.6 14.26L5.88 1.34C5.98667 1.07333 6.18667 0.94 6.48 0.94C6.61333 0.94 6.72667 0.98 6.82 1.06C6.92667 1.12667 7.00667 1.22 7.06 1.34L12.32 14.2ZM9.2 9.78L6.4 2.94L3.64 9.78L9.2 9.78ZM21.7092 7.56C22.5092 7.76 23.1626 8.16 23.6692 8.76C24.1759 9.36 24.4292 10.14 24.4292 11.1C24.4292 12.4067 24.0226 13.3867 23.2092 14.04C22.4092 14.68 21.4092 15 20.2092 15H14.8292C14.6559 15 14.5092 14.9467 14.3892 14.84C14.2826 14.72 14.2292 14.5733 14.2292 14.4L14.2292 1.6C14.2292 1.42667 14.2826 1.28667 14.3892 1.18C14.5092 1.06 14.6559 0.999999 14.8292 0.999999L20.1292 0.999999C21.2492 0.999999 22.1226 1.30667 22.7492 1.92C23.3892 2.53333 23.7092 3.37333 23.7092 4.44C23.7092 5.14667 23.5359 5.78 23.1892 6.34C22.8426 6.9 22.3492 7.30667 21.7092 7.56ZM22.4292 4.54C22.4292 3.80667 22.2092 3.23333 21.7692 2.82C21.3426 2.39333 20.7426 2.18 19.9692 2.18L15.5092 2.18V7.18L19.9692 7.18C20.6892 7.16667 21.2759 6.93333 21.7292 6.48C22.1959 6.02667 22.4292 5.38 22.4292 4.54ZM20.1492 13.82C21.0426 13.82 21.7626 13.5933 22.3092 13.14C22.8692 12.6867 23.1492 12.0067 23.1492 11.1C23.1492 10.1667 22.8626 9.48 22.2892 9.04C21.7292 8.6 21.0026 8.38 20.1092 8.38L15.5092 8.38L15.5092 13.82H20.1492ZM39.1366 8C39.1366 9.37333 38.8499 10.6067 38.2766 11.7C37.7032 12.7933 36.9099 13.6533 35.8966 14.28C34.8832 14.8933 33.7299 15.2 32.4366 15.2C31.1432 15.2 29.9899 14.8933 28.9766 14.28C27.9632 13.6533 27.1699 12.7933 26.5966 11.7C26.0232 10.6067 25.7366 9.37333 25.7366 8C25.7366 6.61333 26.0232 5.37333 26.5966 4.28C27.1699 3.18667 27.9632 2.33333 28.9766 1.72C29.9899 1.10667 31.1432 0.799999 32.4366 0.799999C33.7299 0.799999 34.8832 1.10667 35.8966 1.72C36.9099 2.33333 37.7032 3.18667 38.2766 4.28C38.8499 5.37333 39.1366 6.61333 39.1366 8ZM37.8566 8C37.8566 6.84 37.6232 5.80667 37.1566 4.9C36.7032 3.98 36.0632 3.26667 35.2366 2.76C34.4232 2.25333 33.4899 2 32.4366 2C31.3832 2 30.4432 2.25333 29.6166 2.76C28.8032 3.26667 28.1632 3.98 27.6966 4.9C27.2432 5.80667 27.0166 6.84 27.0166 8C27.0166 9.16 27.2432 10.2 27.6966 11.12C28.1632 12.0267 28.8032 12.7333 29.6166 13.24C30.4432 13.7467 31.3832 14 32.4366 14C33.4899 14 34.4232 13.7467 35.2366 13.24C36.0632 12.7333 36.7032 12.0267 37.1566 11.12C37.6232 10.2 37.8566 9.16 37.8566 8ZM51.2691 0.999999C51.4424 0.999999 51.5824 1.06 51.6891 1.18C51.8091 1.28667 51.8691 1.42667 51.8691 1.6V9.88C51.8691 10.8533 51.6357 11.7467 51.1691 12.56C50.7024 13.3733 50.0691 14.0133 49.2691 14.48C48.4691 14.9467 47.5891 15.18 46.6291 15.18C45.6557 15.18 44.7691 14.9467 43.9691 14.48C43.1691 14.0133 42.5357 13.3733 42.0691 12.56C41.6024 11.7467 41.3691 10.8533 41.3691 9.88V1.6C41.3691 1.42667 41.4224 1.28667 41.5291 1.18C41.6491 1.06 41.8091 0.999999 42.0091 0.999999C42.1691 0.999999 42.3091 1.06 42.4291 1.18C42.5491 1.28667 42.6091 1.42667 42.6091 1.6V9.88C42.6091 10.6267 42.7891 11.3133 43.1491 11.94C43.5091 12.5667 43.9957 13.0667 44.6091 13.44C45.2357 13.8 45.9091 13.98 46.6291 13.98C47.3624 13.98 48.0357 13.8 48.6491 13.44C49.2757 13.0667 49.7691 12.5667 50.1291 11.94C50.5024 11.3133 50.6891 10.6267 50.6891 9.88V1.6C50.6891 1.42667 50.7424 1.28667 50.8491 1.18C50.9557 1.06 51.0957 0.999999 51.2691 0.999999ZM63.9469 0.999999C64.1202 0.999999 64.2602 1.05333 64.3669 1.16C64.4869 1.26667 64.5469 1.40667 64.5469 1.58C64.5469 1.75333 64.4869 1.89333 64.3669 2C64.2602 2.09333 64.1202 2.14 63.9469 2.14L59.8069 2.14V14.4C59.8069 14.5733 59.7469 14.72 59.6269 14.84C59.5069 14.9467 59.3602 15 59.1869 15C59.0002 15 58.8469 14.9467 58.7269 14.84C58.6202 14.72 58.5669 14.5733 58.5669 14.4V2.14H54.4269C54.2535 2.14 54.1069 2.08667 53.9869 1.98C53.8802 1.87333 53.8269 1.73333 53.8269 1.56C53.8269 1.4 53.8802 1.26667 53.9869 1.16C54.1069 1.05333 54.2535 0.999999 54.4269 0.999999L63.9469 0.999999Z" fill="#A9A9A9"/>
</svg>
