<svg width="236" height="25" viewBox="0 0 236 25" fill="none" xmlns="http://www.w3.org/2000/svg">
<path d="M25.528 1.984C24.76 2.02667 24.1947 2.112 23.832 2.24C23.4907 2.368 23.256 2.61333 23.128 2.976C23 3.33867 22.936 3.92533 22.936 4.736V20.608C22.936 21.4187 23 22.0053 23.128 22.368C23.256 22.7307 23.4907 22.976 23.832 23.104C24.1947 23.232 24.76 23.3173 25.528 23.36V24C24.5467 23.936 23.192 23.904 21.464 23.904C19.6293 23.904 18.264 23.936 17.368 24V23.36C18.136 23.3173 18.6907 23.232 19.032 23.104C19.3947 22.976 19.64 22.7307 19.768 22.368C19.896 22.0053 19.96 21.4187 19.96 20.608V3.456L12.248 24.16H11.736L3.672 3.392L3.672 20.288C3.672 21.12 3.736 21.7387 3.864 22.144C4.01333 22.5493 4.29067 22.848 4.696 23.04C5.10133 23.2107 5.73067 23.3173 6.584 23.36V24C5.816 23.936 4.728 23.904 3.32 23.904C2.04 23.904 1.048 23.936 0.344 24L0.344 23.36C1.09067 23.3173 1.64533 23.2107 2.008 23.04C2.37067 22.848 2.616 22.5493 2.744 22.144C2.872 21.7173 2.936 21.0987 2.936 20.288L2.936 4.736C2.936 3.92533 2.872 3.33867 2.744 2.976C2.616 2.61333 2.37067 2.368 2.008 2.24C1.66667 2.112 1.112 2.02667 0.344 1.984L0.344 1.344C1.048 1.408 2.04 1.44 3.32 1.44C4.42933 1.44 5.336 1.408 6.04 1.344L13.08 19.872L19.96 1.44H21.464C23.192 1.44 24.5467 1.408 25.528 1.344V1.984ZM44.635 1.984C43.8883 2.02667 43.3337 2.144 42.971 2.336C42.6083 2.50667 42.363 2.80533 42.235 3.232C42.107 3.63733 42.043 4.24533 42.043 5.056L42.043 14.688C42.043 16.224 41.9363 17.5467 41.723 18.656C41.531 19.744 41.2003 20.6827 40.731 21.472C40.1977 22.3893 39.4083 23.1147 38.363 23.648C37.339 24.1813 36.1763 24.448 34.875 24.448C32.5283 24.448 30.7363 23.872 29.499 22.72C28.5603 21.8453 27.931 20.8533 27.611 19.744C27.291 18.6347 27.131 16.9813 27.131 14.784V4.736C27.131 3.92533 27.067 3.33867 26.939 2.976C26.811 2.61333 26.5657 2.368 26.203 2.24C25.8617 2.112 25.307 2.02667 24.539 1.984V1.344C25.435 1.408 26.8003 1.44 28.635 1.44C30.363 1.44 31.7177 1.408 32.699 1.344V1.984C31.931 2.02667 31.3657 2.112 31.003 2.24C30.6617 2.368 30.427 2.61333 30.299 2.976C30.171 3.33867 30.107 3.92533 30.107 4.736V15.328C30.107 17.0347 30.2243 18.4533 30.459 19.584C30.6937 20.7147 31.1737 21.6213 31.899 22.304C32.6457 22.9867 33.7337 23.328 35.163 23.328C37.4243 23.328 39.0137 22.6027 39.931 21.152C40.8483 19.7013 41.307 17.664 41.307 15.04L41.307 5.056C41.307 3.904 41.0937 3.11467 40.667 2.688C40.2617 2.26133 39.5043 2.02667 38.395 1.984V1.344C39.163 1.408 40.251 1.44 41.659 1.44C42.939 1.44 43.931 1.408 44.635 1.344V1.984ZM50.4795 0.991999C51.4182 0.991999 52.1542 1.09867 52.6875 1.312C53.2422 1.504 53.8075 1.792 54.3835 2.176C54.8528 2.47467 55.2155 2.624 55.4715 2.624C55.6635 2.624 55.8128 2.51733 55.9195 2.304C56.0262 2.06933 56.1115 1.70667 56.1755 1.216H56.9115C56.8048 2.45333 56.7515 4.62933 56.7515 7.744H56.0155C55.8875 6.016 55.3862 4.56533 54.5115 3.392C53.6582 2.19733 52.4102 1.6 50.7675 1.6C49.6155 1.6 48.6768 1.952 47.9515 2.656C47.2262 3.33867 46.8635 4.224 46.8635 5.312C46.8635 6.12267 47.0448 6.82667 47.4075 7.424C47.7915 8.02133 48.2715 8.53333 48.8475 8.96C49.4235 9.38667 50.2448 9.93067 51.3115 10.592L52.2395 11.168C53.5835 12 54.6395 12.736 55.4075 13.376C56.1968 13.9947 56.8262 14.7093 57.2955 15.52C57.7648 16.3307 57.9995 17.28 57.9995 18.368C57.9995 20.3093 57.3595 21.8133 56.0795 22.88C54.7995 23.9253 53.1782 24.448 51.2155 24.448C50.1915 24.448 49.3488 24.3413 48.6875 24.128C48.0475 23.9147 47.4288 23.6267 46.8315 23.264C46.3622 22.9653 45.9995 22.816 45.7435 22.816C45.5515 22.816 45.4022 22.9333 45.2955 23.168C45.1888 23.3813 45.1035 23.7333 45.0395 24.224H44.3035C44.3888 23.0507 44.4315 20.4907 44.4315 16.544H45.1675C45.3168 18.6987 45.8502 20.448 46.7675 21.792C47.6848 23.136 49.0928 23.808 50.9915 23.808C52.1435 23.808 53.1248 23.456 53.9355 22.752C54.7462 22.0267 55.1515 20.96 55.1515 19.552C55.1515 18.3573 54.7462 17.344 53.9355 16.512C53.1462 15.68 51.8875 14.7413 50.1595 13.696C48.9008 12.928 47.8768 12.2453 47.0875 11.648C46.3195 11.0507 45.6902 10.336 45.1995 9.504C44.7088 8.65067 44.4635 7.65867 44.4635 6.528C44.4635 4.736 45.0395 3.37067 46.1915 2.432C47.3435 1.472 48.7728 0.991999 50.4795 0.991999ZM74.0968 19.904C74.0968 21.12 74.1714 22.4853 74.3208 24C72.8701 23.936 70.4274 23.904 66.9928 23.904C62.8968 23.904 59.8034 23.936 57.7128 24V23.36C58.4808 23.3173 59.0354 23.232 59.3768 23.104C59.7394 22.976 59.9848 22.7307 60.1128 22.368C60.2408 22.0053 60.3048 21.4187 60.3048 20.608L60.3048 4.736C60.3048 3.92533 60.2408 3.33867 60.1128 2.976C59.9848 2.61333 59.7394 2.368 59.3768 2.24C59.0354 2.112 58.4808 2.02667 57.7128 1.984V1.344C59.8034 1.408 62.8968 1.44 66.9928 1.44C70.1288 1.44 72.3581 1.408 73.6808 1.344C73.5314 2.752 73.4568 4.01067 73.4568 5.12C73.4568 5.952 73.4888 6.61333 73.5528 7.104H72.8168C72.6674 5.71733 72.4754 4.69333 72.2408 4.032C72.0061 3.34933 71.6114 2.85867 71.0568 2.56C70.5021 2.24 69.6594 2.08 68.5288 2.08H65.8728C65.1048 2.08 64.5394 2.144 64.1768 2.272C63.8354 2.37867 63.6008 2.61333 63.4728 2.976C63.3448 3.33867 63.2808 3.92533 63.2808 4.736V12.288H65.3928C66.1394 12.288 66.7154 12.1173 67.1208 11.776C67.5261 11.4133 67.7928 10.9973 67.9208 10.528C68.0701 10.0373 68.1874 9.42933 68.2728 8.704L68.3688 8.064H69.1048C69.0408 8.96 69.0088 9.96267 69.0088 11.072V12.608C69.0088 13.696 69.0728 15.2107 69.2008 17.152H68.4648C68.4434 17.0027 68.3794 16.4907 68.2728 15.616C68.1661 14.72 67.8674 14.048 67.3768 13.6C66.9074 13.152 66.2461 12.928 65.3928 12.928H63.2808V20.608C63.2808 21.4187 63.3448 22.0053 63.4728 22.368C63.6008 22.7307 63.8354 22.976 64.1768 23.104C64.5394 23.2107 65.1048 23.264 65.8728 23.264H68.2088C69.5314 23.264 70.5341 23.0933 71.2168 22.752C71.9208 22.3893 72.4328 21.824 72.7528 21.056C73.0728 20.2667 73.3074 19.1147 73.4568 17.6H74.1928C74.1288 18.176 74.0968 18.944 74.0968 19.904ZM84.5407 0.895998C86.5674 0.895998 88.3381 1.35467 89.8527 2.272C91.3887 3.18933 92.5727 4.52267 93.4047 6.272C94.2581 8 94.6847 10.0693 94.6847 12.48C94.6847 14.8267 94.2474 16.9067 93.3727 18.72C92.5194 20.5333 91.3141 21.9413 89.7567 22.944C88.2207 23.9467 86.4714 24.448 84.5087 24.448C82.4821 24.448 80.7007 23.9893 79.1647 23.072C77.6501 22.1547 76.4661 20.832 75.6127 19.104C74.7807 17.3547 74.3647 15.2747 74.3647 12.864C74.3647 10.5173 74.7914 8.43733 75.6447 6.624C76.5194 4.81067 77.7247 3.40267 79.2607 2.4C80.8181 1.39733 82.5781 0.895998 84.5407 0.895998ZM84.4127 1.472C83.0474 1.472 81.8421 1.952 80.7967 2.912C79.7727 3.85067 78.9727 5.17333 78.3967 6.88C77.8421 8.58667 77.5647 10.5387 77.5647 12.736C77.5647 14.9547 77.8741 16.9067 78.4927 18.592C79.1327 20.2773 79.9861 21.5787 81.0527 22.496C82.1194 23.4133 83.3141 23.872 84.6367 23.872C86.0021 23.872 87.1967 23.4027 88.2207 22.464C89.2661 21.504 90.0661 20.1707 90.6207 18.464C91.1967 16.7573 91.4847 14.8053 91.4847 12.608C91.4847 10.3893 91.1647 8.43733 90.5247 6.752C89.9061 5.06667 89.0634 3.76533 87.9967 2.848C86.9301 1.93067 85.7354 1.472 84.4127 1.472ZM108.036 1.344C111.812 1.344 114.639 2.29333 116.516 4.192C118.394 6.06933 119.332 8.81067 119.332 12.416C119.332 14.7413 118.874 16.7787 117.956 18.528C117.039 20.2773 115.706 21.632 113.956 22.592C112.228 23.5307 110.159 24 107.748 24L105.892 23.968C104.698 23.9253 103.823 23.904 103.268 23.904C101.519 23.904 100.196 23.936 99.3003 24V23.36C100.068 23.3173 100.623 23.232 100.964 23.104C101.327 22.976 101.572 22.7307 101.7 22.368C101.828 22.0053 101.892 21.4187 101.892 20.608V4.736C101.892 3.92533 101.828 3.33867 101.7 2.976C101.572 2.61333 101.327 2.368 100.964 2.24C100.623 2.112 100.068 2.02667 99.3003 1.984V1.344C100.047 1.408 101.082 1.44 102.404 1.44L105.124 1.408C106.575 1.36533 107.546 1.344 108.036 1.344ZM107.236 1.92C106.575 1.92 106.074 1.99467 105.732 2.144C105.412 2.29333 105.188 2.56 105.06 2.944C104.932 3.328 104.868 3.904 104.868 4.672V20.672C104.868 21.44 104.932 22.016 105.06 22.4C105.188 22.784 105.412 23.0507 105.732 23.2C106.074 23.3493 106.586 23.424 107.268 23.424C109.53 23.424 111.311 23.0187 112.612 22.208C113.914 21.376 114.82 20.1707 115.332 18.592C115.866 17.0133 116.132 14.9973 116.132 12.544C116.132 10.0907 115.844 8.096 115.268 6.56C114.692 5.00267 113.754 3.84 112.452 3.072C111.172 2.304 109.434 1.92 107.236 1.92ZM135.328 19.904C135.328 21.12 135.403 22.4853 135.552 24C134.101 23.936 131.659 23.904 128.224 23.904C124.128 23.904 121.035 23.936 118.944 24V23.36C119.712 23.3173 120.267 23.232 120.608 23.104C120.971 22.976 121.216 22.7307 121.344 22.368C121.472 22.0053 121.536 21.4187 121.536 20.608V4.736C121.536 3.92533 121.472 3.33867 121.344 2.976C121.216 2.61333 120.971 2.368 120.608 2.24C120.267 2.112 119.712 2.02667 118.944 1.984V1.344C121.035 1.408 124.128 1.44 128.224 1.44C131.36 1.44 133.589 1.408 134.912 1.344C134.763 2.752 134.688 4.01067 134.688 5.12C134.688 5.952 134.72 6.61333 134.784 7.104H134.048C133.899 5.71733 133.707 4.69333 133.472 4.032C133.237 3.34933 132.843 2.85867 132.288 2.56C131.733 2.24 130.891 2.08 129.76 2.08H127.104C126.336 2.08 125.771 2.144 125.408 2.272C125.067 2.37867 124.832 2.61333 124.704 2.976C124.576 3.33867 124.512 3.92533 124.512 4.736V12.288H126.624C127.371 12.288 127.947 12.1173 128.352 11.776C128.757 11.4133 129.024 10.9973 129.152 10.528C129.301 10.0373 129.419 9.42933 129.504 8.704L129.6 8.064H130.336C130.272 8.96 130.24 9.96267 130.24 11.072V12.608C130.24 13.696 130.304 15.2107 130.432 17.152H129.696C129.675 17.0027 129.611 16.4907 129.504 15.616C129.397 14.72 129.099 14.048 128.608 13.6C128.139 13.152 127.477 12.928 126.624 12.928H124.512V20.608C124.512 21.4187 124.576 22.0053 124.704 22.368C124.832 22.7307 125.067 22.976 125.408 23.104C125.771 23.2107 126.336 23.264 127.104 23.264H129.44C130.763 23.264 131.765 23.0933 132.448 22.752C133.152 22.3893 133.664 21.824 133.984 21.056C134.304 20.2667 134.539 19.1147 134.688 17.6H135.424C135.36 18.176 135.328 18.944 135.328 19.904ZM145.581 14.848V20.608C145.581 21.4187 145.666 22.0053 145.837 22.368C146.007 22.7307 146.306 22.976 146.733 23.104C147.159 23.232 147.853 23.3173 148.813 23.36V24C147.703 23.936 146.135 23.904 144.109 23.904C142.274 23.904 140.909 23.936 140.013 24V23.36C140.781 23.3173 141.335 23.232 141.677 23.104C142.039 22.976 142.285 22.7307 142.413 22.368C142.541 22.0053 142.605 21.4187 142.605 20.608V4.736C142.605 3.92533 142.541 3.33867 142.413 2.976C142.285 2.61333 142.039 2.368 141.677 2.24C141.335 2.112 140.781 2.02667 140.013 1.984V1.344C140.909 1.408 142.21 1.44 143.917 1.44L147.373 1.408C147.778 1.38667 148.237 1.376 148.749 1.376C151.245 1.376 153.154 1.952 154.477 3.104C155.799 4.23467 156.461 5.76 156.461 7.68C156.461 8.85333 156.194 9.984 155.661 11.072C155.149 12.1387 154.263 13.0347 153.005 13.76C151.767 14.4853 150.114 14.848 148.045 14.848H145.581ZM147.949 1.984C147.287 1.984 146.786 2.05867 146.445 2.208C146.125 2.35733 145.901 2.624 145.773 3.008C145.645 3.392 145.581 3.968 145.581 4.736V14.208H147.725C149.815 14.208 151.255 13.6533 152.045 12.544C152.855 11.4133 153.261 9.90933 153.261 8.032C153.261 5.96267 152.845 4.43733 152.013 3.456C151.202 2.47467 149.847 1.984 147.949 1.984ZM163.692 1.984C162.924 2.02667 162.358 2.112 161.996 2.24C161.654 2.368 161.42 2.61333 161.292 2.976C161.164 3.33867 161.1 3.92533 161.1 4.736V20.608C161.1 21.4187 161.164 22.0053 161.292 22.368C161.42 22.7307 161.654 22.976 161.996 23.104C162.358 23.232 162.924 23.3173 163.692 23.36V24C162.71 23.936 161.356 23.904 159.628 23.904C157.793 23.904 156.428 23.936 155.532 24V23.36C156.3 23.3173 156.854 23.232 157.196 23.104C157.558 22.976 157.804 22.7307 157.932 22.368C158.06 22.0053 158.124 21.4187 158.124 20.608V4.736C158.124 3.92533 158.06 3.33867 157.932 2.976C157.804 2.61333 157.558 2.368 157.196 2.24C156.854 2.112 156.3 2.02667 155.532 1.984V1.344C156.428 1.408 157.793 1.44 159.628 1.44C161.334 1.44 162.689 1.408 163.692 1.344V1.984ZM179.559 19.904C179.559 21.12 179.634 22.4853 179.783 24C178.333 23.936 175.89 23.904 172.455 23.904C168.359 23.904 165.266 23.936 163.175 24V23.36C163.943 23.3173 164.498 23.232 164.839 23.104C165.202 22.976 165.447 22.7307 165.575 22.368C165.703 22.0053 165.767 21.4187 165.767 20.608V4.736C165.767 3.92533 165.703 3.33867 165.575 2.976C165.447 2.61333 165.202 2.368 164.839 2.24C164.498 2.112 163.943 2.02667 163.175 1.984V1.344C165.266 1.408 168.359 1.44 172.455 1.44C175.591 1.44 177.821 1.408 179.143 1.344C178.994 2.752 178.919 4.01067 178.919 5.12C178.919 5.952 178.951 6.61333 179.015 7.104H178.279C178.13 5.71733 177.938 4.69333 177.703 4.032C177.469 3.34933 177.074 2.85867 176.519 2.56C175.965 2.24 175.122 2.08 173.991 2.08H171.335C170.567 2.08 170.002 2.144 169.639 2.272C169.298 2.37867 169.063 2.61333 168.935 2.976C168.807 3.33867 168.743 3.92533 168.743 4.736V12.288H170.855C171.602 12.288 172.178 12.1173 172.583 11.776C172.989 11.4133 173.255 10.9973 173.383 10.528C173.533 10.0373 173.65 9.42933 173.735 8.704L173.831 8.064H174.567C174.503 8.96 174.471 9.96267 174.471 11.072V12.608C174.471 13.696 174.535 15.2107 174.663 17.152H173.927C173.906 17.0027 173.842 16.4907 173.735 15.616C173.629 14.72 173.33 14.048 172.839 13.6C172.37 13.152 171.709 12.928 170.855 12.928H168.743V20.608C168.743 21.4187 168.807 22.0053 168.935 22.368C169.063 22.7307 169.298 22.976 169.639 23.104C170.002 23.2107 170.567 23.264 171.335 23.264H173.671C174.994 23.264 175.997 23.0933 176.679 22.752C177.383 22.3893 177.895 21.824 178.215 21.056C178.535 20.2667 178.77 19.1147 178.919 17.6H179.655C179.591 18.176 179.559 18.944 179.559 19.904ZM188.211 1.344C191.987 1.344 194.814 2.29333 196.691 4.192C198.569 6.06933 199.507 8.81067 199.507 12.416C199.507 14.7413 199.049 16.7787 198.131 18.528C197.214 20.2773 195.881 21.632 194.131 22.592C192.403 23.5307 190.334 24 187.923 24L186.067 23.968C184.873 23.9253 183.998 23.904 183.443 23.904C181.694 23.904 180.371 23.936 179.475 24V23.36C180.243 23.3173 180.798 23.232 181.139 23.104C181.502 22.976 181.747 22.7307 181.875 22.368C182.003 22.0053 182.067 21.4187 182.067 20.608V4.736C182.067 3.92533 182.003 3.33867 181.875 2.976C181.747 2.61333 181.502 2.368 181.139 2.24C180.798 2.112 180.243 2.02667 179.475 1.984V1.344C180.222 1.408 181.257 1.44 182.579 1.44L185.299 1.408C186.75 1.36533 187.721 1.344 188.211 1.344ZM187.411 1.92C186.75 1.92 186.249 1.99467 185.907 2.144C185.587 2.29333 185.363 2.56 185.235 2.944C185.107 3.328 185.043 3.904 185.043 4.672V20.672C185.043 21.44 185.107 22.016 185.235 22.4C185.363 22.784 185.587 23.0507 185.907 23.2C186.249 23.3493 186.761 23.424 187.443 23.424C189.705 23.424 191.486 23.0187 192.787 22.208C194.089 21.376 194.995 20.1707 195.507 18.592C196.041 17.0133 196.307 14.9973 196.307 12.544C196.307 10.0907 196.019 8.096 195.443 6.56C194.867 5.00267 193.929 3.84 192.627 3.072C191.347 2.304 189.609 1.92 187.411 1.92ZM218.895 22.4C218.404 23.1253 217.914 23.648 217.423 23.968C216.932 24.288 216.282 24.448 215.471 24.448C214.596 24.448 213.871 24.192 213.295 23.68C212.74 23.168 212.324 22.272 212.047 20.992L211.343 17.792C211.087 16.6827 210.842 15.8293 210.607 15.232C210.394 14.6347 210.063 14.1547 209.615 13.792C209.167 13.4293 208.538 13.248 207.727 13.248H204.687V20.608C204.687 21.4187 204.751 22.0053 204.879 22.368C205.007 22.7307 205.242 22.976 205.583 23.104C205.946 23.232 206.511 23.3173 207.279 23.36V24C206.298 23.936 204.943 23.904 203.215 23.904C201.38 23.904 200.015 23.936 199.119 24V23.36C199.887 23.3173 200.442 23.232 200.783 23.104C201.146 22.976 201.391 22.7307 201.519 22.368C201.647 22.0053 201.711 21.4187 201.711 20.608V4.736C201.711 3.92533 201.647 3.33867 201.519 2.976C201.391 2.61333 201.146 2.368 200.783 2.24C200.442 2.112 199.887 2.02667 199.119 1.984V1.344C200.015 1.408 201.316 1.44 203.023 1.44L206.479 1.408C206.884 1.38667 207.343 1.376 207.855 1.376C210.33 1.376 212.228 1.89867 213.551 2.944C214.895 3.968 215.567 5.30133 215.567 6.944C215.567 7.776 215.364 8.61867 214.959 9.472C214.575 10.304 213.914 11.0613 212.975 11.744C212.058 12.4053 210.852 12.8533 209.359 13.088L209.743 13.152C211.151 13.3867 212.175 13.8133 212.815 14.432C213.455 15.0507 213.924 16.032 214.223 17.376L215.023 20.64C215.236 21.6213 215.46 22.304 215.695 22.688C215.93 23.072 216.25 23.264 216.655 23.264C217.018 23.264 217.316 23.168 217.551 22.976C217.807 22.784 218.095 22.4747 218.415 22.048L218.895 22.4ZM207.055 1.984C206.394 1.984 205.892 2.05867 205.551 2.208C205.231 2.35733 205.007 2.624 204.879 3.008C204.751 3.392 204.687 3.968 204.687 4.736V12.608H206.831C208.943 12.608 210.394 12.1387 211.183 11.2C211.972 10.2613 212.367 8.96 212.367 7.296C212.367 5.54667 211.951 4.224 211.119 3.328C210.287 2.432 208.932 1.984 207.055 1.984ZM233.469 21.312C233.981 22.6347 234.717 23.3173 235.677 23.36V24C234.824 23.936 233.682 23.904 232.253 23.904C230.418 23.904 229.053 23.936 228.157 24V23.36C228.968 23.3173 229.544 23.2213 229.885 23.072C230.248 22.9013 230.429 22.6027 230.429 22.176C230.429 21.8133 230.301 21.312 230.045 20.672L228.093 15.424H220.349L219.037 18.816C218.61 19.968 218.397 20.8427 218.397 21.44C218.397 22.1013 218.621 22.5813 219.069 22.88C219.538 23.1787 220.242 23.3387 221.181 23.36V24C219.965 23.936 218.738 23.904 217.501 23.904C216.541 23.904 215.741 23.936 215.101 24V23.36C216.168 23.104 217.01 22.176 217.629 20.576L225.149 1.184L225.661 1.184L233.469 21.312ZM227.837 14.784L224.253 5.216L220.605 14.784H227.837Z" fill="#A9A9A9"/>
</svg>
